<svg xmlns="http://www.w3.org/2000/svg" id="Layer_1" x="0" y="0" version="1.1" viewBox="0 0 256 256" xml:space="preserve">
  <style>
    .st1{fill:#06f4e4}.st2{fill:#fff}
  </style>
  <path fill="#1405ff" d="M0 0h256v256H0z"/>
  <path d="M95 58.8h62.3v62.8H95z" class="st1"/>
  <path d="M95 134.5h62.3v63.6H95z" class="st1"/>
  <path d="M211.2 117.5c-3.1-17.5-19.6-29.2-36.8-26.1l.2 1.4c16.5-2.9 32.3 8.2 35.1 24.9 2 12.3-3.3 24.5-13.7 31.1l-2.2-5.8-8.8 10.9 13.7 2.3-2.2-6c11-7 17-19.8 14.7-32.7zM73.8 155.9c-8.2 1-16.1-1.2-22.5-6.2-6.3-4.9-10.6-12.3-11.6-20.4-1.6-12.3 4.5-24.5 15.1-30.5l1.8 5.8L66 94.2l-13.7-2.9 2 6.2c-11.2 6.4-17.8 18.9-16.1 31.9 1 8.4 5.3 16 12.1 21.4 5.7 4.3 12.5 6.8 19.4 6.8 1.4 0 2.7 0 4.1-.2v-1.5zM95 58.8v62.8h62.3V58.8H95zm40.4 47.6L133 100h-13.1l-2.5 6.4h-6.3l12.3-31.5h6.5l12.1 31.5h-6.6z" class="st2"/>
  <path d="M121.8 95h9.6l-4.7-13.2-4.9 13.2zM95 134.5v63.6h62.3v-63.6H95zm24.5 12.8s6.7 0 10-1.2c3.1-1.2 2.2 3.1 2.2 3.1s-4.5 5.3-9.4 2.7c-5.2-3-2.8-4.6-2.8-4.6zm-5.1 42.4l-3.1-.6s16.7-16 21.9-31.5l-11.4 2.9s-3.7 5.1-8.8-1c0 0 18.8-3.3 25.7-8.6 0-.1-.4 16.1-24.3 38.8zm16.1-18.7l1.4-1 12.5 5.1.4 3.1c-.2 0-6.5-.7-14.3-7.2z" class="st2"/>
</svg>
